<svg xmlns="http://www.w3.org/2000/svg" viewBox="0 0 128.87 131.49"><defs><style>.cls-1{fill:#f3f3f3;}.cls-2{fill:#f52716;}.cls-3{fill:#237af2;}.cls-4{fill:#01a53f;}.cls-5{fill:#f9b301;}</style></defs><g id="Layer_2" data-name="Layer 2"><g id="Content"><g id="XWJ8r2"><path class="cls-1" d="M7.39,95.3a16.32,16.32,0,0,0,.75,1.83C21.62,121.21,47.27,134.37,74.63,131c13.09-1.63,25.11-6,34.69-15.57,17.64-16.33,21.38-37,18.84-59.73-.26-2.29-1.61-2.38-3.45-2.38-18.47,0-36.94.1-55.41,0-3.07,0-3.56,1.29-3.5,3.88.13,5.65.25,11.32,0,17-.19,3.79.75,5.23,4.88,5.08,9.14-.33,18.3,0,27.45-.16,3.5-.07,3.75,1,2.74,4C98.54,90,94.17,95.2,88.6,99.62a39.47,39.47,0,0,1-5.81,2.76c-7.51,2.21-14.67,4.94-23.1,3-15.25-3.5-25.14-12.41-31-26.46a45.15,45.15,0,0,1,0-26.52C40.39,23,72.74,19.15,89.4,33.93c1.71,1.51,2.68,1.08,4-.33,4.28-4.42,8.55-8.87,13.08-13,2.83-2.61,2.67-4.4-.31-6.68A67,67,0,0,0,77.72,1.06,65.24,65.24,0,0,0,45.15,3.51C28.25,9,15.39,19.89,7.44,36.1-2.51,55.82-2.43,75.56,7.39,95.3Z"/><path class="cls-2" d="M7.44,36.1C15.39,19.89,28.25,9,45.15,3.51A65.24,65.24,0,0,1,77.72,1.06a67,67,0,0,1,28.5,12.83c3,2.28,3.14,4.07.31,6.68-4.53,4.16-8.8,8.61-13.08,13-1.37,1.41-2.34,1.84-4,.33-16.66-14.78-49-11-60.72,18.48A250.23,250.23,0,0,1,7.44,36.1Z"/><path class="cls-3" d="M88.6,99.62c5.57-4.42,9.94-9.65,12.23-16.57,1-3.06.76-4.11-2.74-4-9.15.17-18.31-.17-27.45.16-4.13.15-5.07-1.29-4.88-5.08.29-5.64.17-11.31,0-17-.06-2.59.43-3.9,3.5-3.88,18.47.13,36.94.08,55.41,0,1.84,0,3.19.09,3.45,2.38,2.54,22.7-1.2,43.4-18.84,59.73Z"/><path class="cls-4" d="M88.6,99.62l20.72,15.77C99.74,125,87.72,129.33,74.63,131c-27.36,3.41-53-9.75-66.49-33.83a16.32,16.32,0,0,1-.75-1.83L28.67,78.93c5.88,14,15.77,23,31,26.46,8.43,1.93,15.59-.8,23.1-3A39.47,39.47,0,0,0,88.6,99.62Z"/><path class="cls-5" d="M28.67,78.93,7.39,95.3c-9.82-19.74-9.9-39.48.05-59.2A250.23,250.23,0,0,0,28.68,52.41,45.15,45.15,0,0,0,28.67,78.93Z"/></g></g></g></svg>