<svg xmlns="http://www.w3.org/2000/svg" xmlns:xlink="http://www.w3.org/1999/xlink" viewBox="0 0 1436.58 775.35"><defs><style>.cls-1{fill:#5058a8;}.cls-2{fill:#726ebc;}.cls-3{fill:#6566b4;}.cls-4{fill:#3a4997;}.cls-5{fill:url(#linear-gradient);}.cls-6{fill:#3b438c;}.cls-7{fill:#7b73c2;}.cls-8{fill:#5e61b0;}</style><linearGradient id="linear-gradient" x1="718.16" y1="686.99" x2="718.16" gradientUnits="userSpaceOnUse"><stop offset="0" stop-color="#fff"/><stop offset="0.56" stop-color="#6566b4"/><stop offset="1" stop-color="#304190"/></linearGradient></defs><g id="Layer_2" data-name="Layer 2"><g id="Content"><g id="p21X0v.tif"><path class="cls-1" d="M558,658.89c16.29,5.47,31.24,12.19,41.34,23.73,3.46,4,7.74,5.54,14.65,3.43a85.88,85.88,0,0,1,41.29-2.24c-5.57,8.3-10.69,16.8-17,24.77-1.74,2.19-7,3.91-10.69,4-29.92.82-52.66,9.74-65.53,30.71-2.44,4-5.59,5.26-12.66,4.5-30-3.2-59.1-.75-84,13.73-9.16,5.32-16.7,6.81-28.22,2.69-9.87-3.53-22.15-3.6-33.46-4.47-6.93-.54-11.85-1.35-15.13-6.92-23.11-39.24-92.71-49.72-135.08-20.15-8.22,5.74-12.48,4.15-21.61.71-22.27-8.39-26.93-20.47-25.52-38,1.92-23.76-24.92-48.26-55.8-55.56-4.44-1-8.64-2.65-12.95-4,4.39-1.67,8.58-3.85,13.22-4.92,33.32-7.68,64.35-3.84,93.06,10.85,8.53,12.44,17.72,14.17,26,4.88C288.17,641,306.5,636,327,636.67c38.58,1.2,66.6,15.37,86.73,38.86,3.9,4.54,7.26,6.26,14,6.67,12.78.79,25.43,2.74,38.22,3.45,4.26.23,10.66-.8,12.86-3C498.77,662.35,524.8,654.17,558,658.89Z"/><path class="cls-2" d="M558,658.89c-33.18-4.72-59.21,3.46-79.17,23.73-2.2,2.23-8.6,3.26-12.86,3-12.79-.71-25.44-2.66-38.22-3.45-6.76-.41-10.12-2.13-14-6.67C393.58,652,365.56,637.87,327,636.67c-20.48-.63-38.81,4.36-57.15,9.93-7.3,3-13.86,3.22-19.58-2.27-1.36-1.31-4.22-1.76-6.38-2.61-28.71-14.69-59.74-18.53-93.06-10.85-4.64,1.07-8.83,3.25-13.22,4.92l-32.16.73c-.06-4,.63-8.18-.39-12.08-.93-3.57-3.71-6.88-5.68-10.3-.27-1.58-.53-3.15-.79-4.72,3.65-.57,7.32-1.68,10.94-1.6,8.59.2,17.15,1.4,25.72,1.43,41.39.16,82.78-.06,124.17.2,7.39,0,14.72,2,22.15,2.6,5.33.4,10.79-.1,16.19-.19q-1-5.24-2-10.46c6.19,4.29,13.25,8.09,18.34,13,5.73,5.54,11.34,6.9,20.39,5,7.36-1.54,15.59-1.63,23.28-1.11,6.69.45,10.74-.8,14.39-4.94,24.19-27.42,77.11-24.53,92.33,4,4.66,8.72,11.12,12.43,24.71,10.26,20.59-3.28,36.8,2.35,45.95,17.19,3.47,5.62,7.75,10.17,17.06,10.78C554.23,655.72,556.06,657.74,558,658.89Z"/><path class="cls-1" d="M1038.58,663.22c6.84-3.42,14.18-6.42,20.34-10.43a27.87,27.87,0,0,0,9.36-10.26c13.77-27,57.79-41.79,95.16-28.8,2.69.94,6.16.63,9.26.91-7.84,6.84-16.41,13.3-23.33,20.63-9.19,9.74-9.27,21.28-7.65,32.57,1,6.95-1.48,11.33-9.3,15.6-11.51,6.28-22,13.7-32.21,21.19-5.31,3.9-10.36,5.06-17.38,3.64-21.94-4.43-41.34.2-58.78,10.14-14.94,8.51-21,20.92-24.07,34.08-1.65,7.07-5.78,7.19-13.47,5.4-17.85-4.16-35-8.56-49.81-18-7.41-4.74-19-5.79-28.75-8.5.15-1.32.3-2.64.44-4,26.68-34.09,64.33-40.75,112.3-23.45C1019.33,687.74,1027.74,675.15,1038.58,663.22Z"/><path class="cls-2" d="M295.74,601.4q1,5.22,2,10.46c-5.4.09-10.86.59-16.19.19-7.43-.56-14.76-2.55-22.15-2.6-41.39-.26-82.78,0-124.17-.2-8.57,0-17.13-1.23-25.72-1.43-3.62-.08-7.29,1-10.94,1.6L72.22,579c6.38-.75,12.76-2.1,19.16-2.13,9.83,0,19.7.55,29.48,1.37,7.27.62,14.12,3.56,18.89-4.19,22.4-36.41,84.54-43.58,114.66-15.93,15.42,14.16,24.69,32.5,26.18,36.81l4.44,3Z"/><path class="cls-3" d="M1233.39,563.29c25.2-21.57,64.59-24.31,94.88-6.57,2.81,1.65,7.46,3.95,10.48,5.4-1.44,2.08-6.11,6.13-6.22,6.6l-17.15,16.64c-4.34,0-8.73-.57-13,.17-7.58,1.31-14.56,5-21.83,7.5a49.4,49.4,0,0,0-8.12,3.48c-1.85,1.18-10.47,10-13.27,12.83l-2.24,1.72-6.49-.08a6,6,0,0,0-1.53-.25l-24.42-5.82h-17.36c-2.84-.1-15.5,5-18.34,4.85,5-3.29,19.81-11.75,24.81-15l2.49-4.78C1216.11,588.93,1222.08,572.42,1233.39,563.29Z"/><path class="cls-3" d="M99.36,614.14c2,3.42,4.75,6.73,5.68,10.3,1,3.9.33,8,.39,12.08-1.57-3-3.78-5.89-4.54-9C99.82,623.14,99.82,618.61,99.36,614.14Z"/><path class="cls-4" d="M1224.48,604.91l24.42,5.82Z"/><path class="cls-4" d="M1280.55,593q10.9-3.75,21.83-7.5Z"/><path class="cls-4" d="M1259.16,609.34l8.4-8.38Z"/><path class="cls-4" d="M1250.43,611l6.49.08Z"/><path class="cls-5" d="M1436.24,0H100.61Q50.32,0,0,.18C0,42.12.05,536.5,0,560c27.94-1.84,51.16,6.32,72.21,19,6.39-.76,12.77-2.11,19.17-2.14,9.83,0,19.7.55,29.48,1.37,7.27.62,14.12,3.56,18.89-4.19,22.4-36.41,82.34-41,114.66-15.93,2.4,1.86,15.49,16.94,17.32,20.58,3.42,6.78,7.37,11.92,8.86,16.23l4.44,3,10.71,3.45c6.19,4.29,13.25,8.09,18.34,13,5.73,5.54,11.34,6.9,20.39,5,7.36-1.54,15.59-1.63,23.28-1.11,6.69.45,10.74-.8,14.39-4.94,24.19-27.42,77.11-24.53,92.33,4,4.66,8.72,11.12,12.43,24.71,10.26,20.59-3.28,36.8,2.35,45.95,17.19,3.47,5.62,7.75,10.17,17.06,10.78,2,.14,3.87,2.16,5.79,3.31,16.29,5.47,31.24,12.19,41.34,23.73,3.46,4,7.74,5.54,14.65,3.43a85.88,85.88,0,0,1,41.29-2.24c23.8-12.08,49.33-16,77.18-9.2l7.1-.67c-1.19-8.51,3.53-14.81,13-19.35,9.52-9.34,23.15-8.24,36.5-8.13,14.78.13,14.79,0,15.5-11.08,1.81-28,44.8-46.81,79.13-35.68,20,6.5,29.22,18.2,35.61,32.33l10.86,1.77c10.11,1.52,20.13,6.68,30.33,7.35,7.77.5,17.24.35,23.64-4.47,14-2.47,24.63.23,34.72,1.85,10,2.44,14,8.54,16.47,15.47q1.66,4.61,3.32,9.22c6.84-3.42,14.18-6.42,20.34-10.43a27.87,27.87,0,0,0,9.36-10.26c13.77-27,57.79-41.79,95.16-28.8,2.69.94,6.16.63,9.26.91l24.34-7.38a13.26,13.26,0,0,1,1.56-2.66c4.13-4.34,10-6.59,15-9.88l2.49-4.78c0-1,6.24-17.34,17.31-26.65,25.39-21.34,64.59-24.31,94.88-6.57,2.81,1.65,7.46,3.95,10.48,5.4,1.24-.24,1-1.5,2.27-1.74l6.27-4.56,4.75-3.24,4.4-3.17,4.08-2c1.9-.43,13.65-5.55,17.63-7.69l6.88-3c1.12-6.58,1.72-13.25,3.6-19.72.9-3.12,4.23-5.85,6.46-8.75,1-2.33,5.88-8.16,7.29-8.75,7.87-9.33,20.2-12.88,33.94-14.58C1436.28,459,1436.24,42.41,1436.24,0ZM1244.56,178c.12,0,.44.49.35.57a9.48,9.48,0,0,1-1.24.81l-.63-1.15A10,10,0,0,1,1244.56,178ZM150.76,226.29h0a8.64,8.64,0,0,0,1.34,2.45A8.64,8.64,0,0,1,150.76,226.29Z"/><path class="cls-4" d="M1243.67,179.4l-.63-1.15a10,10,0,0,1,1.52-.23c.12,0,.44.49.35.57A9.48,9.48,0,0,1,1243.67,179.4Z"/><path class="cls-6" d="M1436.09,578.63h0q0-45.24,0-90.48c.07-1.09.13-2.18.19-3.27-7.15.88-19.82,3.06-29.86,9-9.32,5.54-15.29,16.3-16.25,18.17-2.88,5.58-4.06,18-5.18,24.59l-6.88,3c-4,2.13-15.73,7.25-17.63,7.68l-4.08,2-4.4,3.17-4.75,3.24-6.27,4.56h0c-1.24.24-8.38,7.87-8.49,8.34h0l-17.14,16.63c-4.34,0-8.73-.57-13,.17-7.58,1.32-19.57,2.15-27,7-5.12,3.36-13.47,14-16.27,16.83l-2.24,1.72-6.49-.08a6,6,0,0,0-1.53-.25c-8.14-1.94-16.11-4.85-24.42-5.82a75.87,75.87,0,0,0-17.37,0c-3.42.39-6.71,1.56-10.07,2.34l-24.34,7.38c-7.84,6.84-16.41,13.3-23.33,20.63-9.19,9.74-9.27,21.28-7.65,32.57,1,6.95-1.48,11.33-9.3,15.6-11.51,6.28-22,13.7-32.21,21.19-5.31,3.9-10.36,5.06-17.38,3.64-21.94-4.43-41.34.2-58.78,10.14-14.94,8.51-21,20.92-24.07,34.08-1.65,7.07-5.78,7.19-13.47,5.4-17.85-4.16-35-8.56-49.81-18-7.41-4.74-19-5.79-28.76-8.51-2.56-1.29-6-2.16-7.57-4-26-29.32-62.06-38.18-106.85-29.69a33.62,33.62,0,0,1-4.29.26c-.61.15-1.24.28-1.87.38-.65.63-39.16-22.21-54.92-23.73-27.85-6.85-53.38-2.88-77.18,9.2-5.57,8.3-10.69,16.8-17,24.77-1.74,2.19-7,3.91-10.69,4-29.92.82-52.66,9.74-65.53,30.71-2.44,4-5.59,5.26-12.66,4.5-30-3.2-59.1-.75-84,13.73-9.16,5.32-16.7,6.81-28.22,2.69-9.87-3.53-22.15-3.6-33.46-4.47-6.93-.54-11.85-1.35-15.13-6.92-23.11-39.24-92.71-49.72-135.08-20.15-8.22,5.74-12.48,4.15-21.61.71-22.27-8.39-26.93-20.47-25.52-38,1.92-23.76-24.92-48.26-55.8-55.56-4.44-1-8.64-2.65-12.95-4l-32.16.73c-1.57-3-3.78-5.89-4.54-9-1.07-4.38-1.07-8.91-1.53-13.38-.27-1.58-.53-3.15-.79-4.72L72.22,579C51.16,566.29,27.94,558.13,0,560V775.34H15.27q386.4,0,772.79,0,324.16,0,648.32-.1c.07-20.15.24-40.29.19-60.44Q1436.42,646.72,1436.09,578.63Z"/><path class="cls-4" d="M1347.29,555.82l4.75-3.24Z"/><path class="cls-3" d="M1356.44,549.41l4.08-2Z"/><path class="cls-2" d="M1385,536.68l-6.88,3Z"/><path class="cls-2" d="M1038.58,663.22q-1.66-4.61-3.32-9.22c-2.5-6.93-6.87-13.61-16.47-17.47-6.51-2.62-16-5.49-34.72.16-7.57,2.28-15.87,4-23.64,3.46-10.2-.67-20.22-4.83-30.33-6.35h0L919.24,632c-6.39-14.13-15.58-25.83-35.61-32.33-34.33-11.13-77.32,7.69-79.13,35.68-.71,11.1-.71,11.21-15.5,11.08-13.35-.11-26.43-1.67-37.35,6-8.56,6-13.12,11.44-12.11,21.48l-7.1.67c4.41,2.7,12.64.59,29.36,22.95,7.84,10.48,15.55,7.1,23.59,2.64a70.2,70.2,0,0,1,8.13-2.5c44.79-8.49,80.85.37,106.85,29.69,1.58,1.79,5,2.66,7.58,4,.15-1.32.3-2.64.44-4h0c26.68-34.09,64.33-40.75,112.3-23.45C1019.33,687.74,1027.74,675.15,1038.58,663.22Z"/><path class="cls-7" d="M1216.08,589.94l-2.49,4.78Z"/><path class="cls-2" d="M285,598l-4.44-3Z"/><path class="cls-8" d="M243.87,641.72c2.16.85,5,1.3,6.38,2.61,5.72,5.49,12.28,5.27,19.58,2.27C261.59,655.89,252.4,654.16,243.87,641.72Z"/></g></g></g></svg>