<svg xmlns="http://www.w3.org/2000/svg" viewBox="0 0 103.21 76.31"><defs><style>.cls-1{fill:#5058a8;}</style></defs><g id="Layer_2" data-name="Layer 2"><g id="Header"><path class="cls-1" d="M51.61,76.31c-15.38,0-22.48-8.9-24.82-15.43h-6a20.79,20.79,0,0,1-8.94-39.57A17,17,0,0,1,28.52,7.7,16.51,16.51,0,0,1,31.8,8,28.47,28.47,0,0,1,78.67,19.59a20.12,20.12,0,0,1,3.72-.35,20.82,20.82,0,0,1,0,41.64H71.82a32.06,32.06,0,0,1-3.48,6.26C64,73.14,58.24,76.31,51.61,76.31ZM28.52,14.7A10,10,0,0,0,18.57,24a3.51,3.51,0,0,1-2.33,3.08,13.79,13.79,0,0,0,4.58,26.8h8.64a3.5,3.5,0,0,1,3.46,2.93,15.33,15.33,0,0,0,3.19,6.33c3.4,4.09,8.62,6.17,15.5,6.17C62.2,69.31,66,56.54,66,56.41a3.49,3.49,0,0,1,3.36-2.53h13a13.82,13.82,0,0,0,0-27.64,13.25,13.25,0,0,0-4.92,1,3.51,3.51,0,0,1-4.74-2.61A21.47,21.47,0,0,0,35.51,14.27a3.52,3.52,0,0,1-3.79,1A9.38,9.38,0,0,0,28.52,14.7Z"/></g></g></svg>