<svg xmlns="http://www.w3.org/2000/svg" viewBox="0 0 176.92 191.89"><defs><style>.cls-1{fill:#e0dea6;}.cls-2{fill:#4f676b;}.cls-3{fill:#707072;}.cls-4{fill:#ebefca;}.cls-5{font-size:24px;fill:#f9f9f9;font-family:LibreBaskerville-Regular, Libre Baskerville;}</style></defs><g id="Layer_2" data-name="Layer 2"><g id="Content"><g id="nFQwO1"><path class="cls-1" d="M75.7,60.23c6.63-1.13,13.27-.81,19.92-.18,9.73,2,18.82,5.51,26.51,12,16.76,14.1,24.27,32,21.25,53.84-3.35,24.23-22.45,43.61-46.69,48.42-23.38,4.64-48.72-6.61-60.92-27.12a57.94,57.94,0,0,1-8.18-34.85A53.32,53.32,0,0,1,32.84,92.9a11.75,11.75,0,0,0,1.67-4.23l0,.06c.94-1.26,1.64-2.67,2.6-3.91a46.69,46.69,0,0,1,4.26-5.45c1-1.49,2.82-2.35,3.45-4.17.37-.45.64-1,1.33-1.07,3.43-2.23,6.38-5.15,10-7.06l0,0a67.37,67.37,0,0,1,16.67-6.73A9.63,9.63,0,0,1,75.7,60.23Z"/><path class="cls-2" d="M56.14,67.07c-3.29,2.43-6.26,5.32-10,7.06C49.12,71.31,52.13,68.49,56.14,67.07Z"/><path class="cls-3" d="M145,97.78a58.58,58.58,0,0,0-26-30.86c-12-6.71-24.42-8.3-24.43-8.45h-2.7c-3.78,0-7.35-.39-11.35,0a41.65,41.65,0,0,0-6.74,1c-2,.59-13.88,4.37-17.63,7.62,6.2-2.73,12.41-5.46,19.11-6.77a1.91,1.91,0,0,0,.57.52,2.62,2.62,0,0,0,1.83.3,54.75,54.75,0,0,1,15.5,0,2.23,2.23,0,0,0,2.34-.78c.41,1.22,1.54,1.38,2.62,1.63a55.93,55.93,0,0,1,30,17.55c12.57,14.16,17.33,30.65,13.42,49.07-4,18.77-15,32.47-32.63,40.38-16.32,7.3-32.6,6.5-48.58-1-10.93-5.15-19.08-13.43-24.81-24a54.71,54.71,0,0,1-6.17-34.73c.81-5.55,2.93-10.67,4.81-16,.35-1,1.07-4.59,1.09-4.67a8.13,8.13,0,0,1,2-3.54h0l4.33-5.44h0c1.08-1.46,3.46-2,3.18-4.4L41.5,78.29c-1.45,2-3.13,3.17-4.57,5.14C35.71,84.75,33,89,32.56,90.8c-3.67,6.52-6.69,23-6.69,23.89v9.19c0,.9.83,12.55,2.61,17.21a61.94,61.94,0,0,0,18.87,26.16c9.13,7.47,19.31,12.63,31.5,12.58,0,0,9.37.27,12.43.27,1.08,0,12.14-.89,16.44-2.4,12.43-4.36,22.08-12.34,29.75-22.82,6.13-8.36,9.31-20.83,10-28.3a88.07,88.07,0,0,0,.36-14.56A59.37,59.37,0,0,0,145,97.78Z"/><path class="cls-4" d="M122.09,77.92a10.08,10.08,0,0,1,3.29,3.78,6.85,6.85,0,0,1,.48,6.68c-1,2.35.47,6.15,3,7.36,5.29,2.49,7.12,6.69,6.82,12.24a9.61,9.61,0,0,1-4.13,7.26,7.64,7.64,0,0,0-2.79,4.73c-1.58,6.8-3.81,13.33-8.48,18.74a7.78,7.78,0,0,0-1.87,5.45c0,6-3.38,8.89-9.15,7.78a8.41,8.41,0,0,0-5.72.82,34.23,34.23,0,0,1-8.08,3,13.64,13.64,0,0,0-5.71,2.92c-6.06,5-12.78,6.29-20.17,3.27a13.07,13.07,0,0,1-1.48-.66c-1-.6-1.81-1.45-1.32-2.63s1.71-1.23,2.79-.74c2.48,1.13,5.11,1,7.7.83,4.75-.39,8.63-2.34,11-6.76a9.67,9.67,0,0,0-2.08-12.05,16.17,16.17,0,0,0-20.83-.27,10.82,10.82,0,0,0-3.61,7.6c-.34,3.95-1.34,4.44-4.7,2.24a43.5,43.5,0,0,1-14.92-16.4c-2.34-4.51-4.54-9.39-5-14.68-.14-1.61-.35-3.26.8-4.65.52-1.13,1.59-1.31,2.64-1.58a5,5,0,0,0,3.56-2.59,4.29,4.29,0,0,0-1.26-5.29,5,5,0,0,0-5.94.57,3.87,3.87,0,0,0-.37,5.34c.69,1,2.33,1.68,1.35,3.38A4,4,0,0,1,32.39,110a13.62,13.62,0,0,1,.23-4.5c.7-2.3,1.13-4.71,3.92-5.66,1.3-.44,1.51-1.91,1.94-3.1,2.9-8,7-15.19,13.37-21,3-2.72,6.59-4.7,9.44-7.61a16.65,16.65,0,0,1,1.46-1.57l1.5-.66c6.13,0,11.93-2.45,18.1-2.35,12.14.21,22.94,3.88,32.05,12.08,1,.87,1.93,1.68,3.35,1.28A5.4,5.4,0,0,1,122.09,77.92Z"/><path class="cls-1" d="M122.09,77.92c-1.6,0-3.19-.1-4.66.89s-2.13-.38-2.92-1.16A40.63,40.63,0,0,0,99.94,68.2c-9.81-3.56-19.88-4.68-30-1.17-2.2.76-3.69-1.24-5.67-1,8.06-3.65,16.48-4.56,25.26-4,9.77.65,18.19,4.68,26.26,9.71A27,27,0,0,1,122.09,77.92Z"/><path class="cls-1" d="M32.94,105h-.58c1.22-8.38,4.83-15.73,9.9-22.38A48.28,48.28,0,0,1,62.74,66.64a9.5,9.5,0,0,1-4.13,5.63c-9.54,6.2-15.7,15-19.1,25.82-.38,1.24-.69,2.52-2.07,2.92A7.69,7.69,0,0,0,32.94,105Z"/><path class="cls-1" d="M34,130.9c.78-1,.54-2.64,2.36-3.72-1,2.22-1.52,3.87-.43,5.86,1.29,2.37,3.18,1.27,5.52,1.45-2.17,1.85-4,1.22-5.78.68C34.9,133.83,34,132.54,34,130.9Z"/><path class="cls-1" d="M94.62,124.43c-9,0-15.49-4.42-18.19-12.44s1.17-16.23,8.92-20.37c7-3.75,13.91-2.69,20.45,1.43,2.1,1.33,3.32,3.51,4.76,5.45.66.89,1.2,1.56,2.3.47.8-.8,1.83-1.28,2.91-.44a3.4,3.4,0,0,1,1.39,3.06A2.42,2.42,0,0,1,115,104c-1.87.14-2.23,1.07-2.08,2.63C113.8,116.27,103.32,125.37,94.62,124.43Z"/><path class="cls-1" d="M117.79,105.73c.17-4.34,4.11-8.41,8-8.27,4.39.16,8.37,4.67,8.1,9.17s-4.26,8.21-8.53,8C121.26,114.47,117.62,110.18,117.79,105.73Z"/><path class="cls-1" d="M38.25,113.52l-.46-.45c-3.56-2.8-4.34-4.51-3.23-7.11,1.31-3.08,3.95-4.36,7.52-3.64,2.43.5,4,2.92,3.82,6-.14,2.79-2.32,4.88-5.51,5.22A19.1,19.1,0,0,1,38.25,113.52Z"/><path class="cls-1" d="M103.71,131.39a4.8,4.8,0,0,1-5.14,4.92,5,5,0,0,1-5.1-4.77,5.37,5.37,0,0,1,4.8-4.92C101.11,126.55,103.68,128.81,103.71,131.39Z"/><path class="cls-1" d="M107.48,144.59c0-3.22,1.76-5.5,4.3-5.53s4.67,2.43,4.66,5.29-2.19,5.45-4.57,5.43S107.48,147.38,107.48,144.59Z"/></g><text class="cls-5" transform="translate(19.33 92.39) rotate(-60.77)">C</text><text class="cls-5" transform="matrix(0.63, -0.77, 0.77, 0.63, 28.76, 76.46)">l</text><text class="cls-5" transform="matrix(0.71, -0.7, 0.7, 0.71, 33.41, 70.74)">i</text><text class="cls-5" transform="translate(38.71 65.24) rotate(-36.69)">c</text><text class="cls-5" transform="matrix(0.9, -0.44, 0.44, 0.9, 48.36, 57.87)">k</text><text class="cls-5" transform="translate(60.89 51.88) rotate(-18.6)"> </text><text class="cls-5" transform="translate(66.99 49.74) rotate(-12.64)">t</text><text class="cls-5" transform="matrix(1, -0.06, 0.06, 1, 75.16, 47.58)">o</text><text class="cls-5" transform="translate(90.22 46.98) rotate(5.14)"> </text><text class="cls-5" transform="translate(96.49 47.01) rotate(14.61)">B</text><text class="cls-5" transform="matrix(0.89, 0.45, -0.45, 0.89, 113.45, 51.59)">e</text><text class="cls-5" transform="matrix(0.8, 0.6, -0.6, 0.8, 125.15, 57.32)">g</text><text class="cls-5" transform="translate(136.02 65.76) rotate(45.56)">i</text><text class="cls-5" transform="translate(141.6 70.9) rotate(54.81)">n</text></g></g></svg>