<svg xmlns="http://www.w3.org/2000/svg" viewBox="0 0 1455.93 799.78"><defs><style>.cls-1{fill:#f2d6f2;}.cls-2{fill:#f1d6f2;}.cls-3{fill:#db9edb;}.cls-4{fill:#de9ede;}.cls-5{fill:#dd9bdd;}.cls-6{fill:#dc9fd9;}.cls-7{fill:#de9fde;}.cls-8{fill:#de9ade;}.cls-9{fill:#de9cde;}.cls-10{fill:#d6a1d1;}.cls-11{fill:#dda0ce;}.cls-12{fill:#c9a8c9;}.cls-13{fill:#080509;}.cls-14{fill:#09050a;}.cls-15{fill:#321d33;}.cls-16{fill:#e593e9;}.cls-17{fill:#e9e8e9;}.cls-18{fill:#edeced;}.cls-19{fill:#bf88b5;}</style></defs><g id="Layer_2" data-name="Layer 2"><g id="Header"><path class="cls-1" d="M1012.49,272.86c12.24,12.34,24.21,24.75,36.79,37,13.68,13.34,15.94,27,14.1,41,61.45-7.17,118.77-19.44,173.66-34.37,48.91-13.3,97.89-26.71,144.39-42.07,25-8.27,46.46-20,66.34-31.74,7.36-4.35,9.92-13.71,6.94-20.17-3.39-7.36-19-9.11-32.83-10.63-72.48-7.95-139.48-1.82-204.59,10.16-37.47,6.89-159.41,34.32-182.3,41.8C1027,266.45,1020,269.83,1012.49,272.86Z"/><path class="cls-1" d="M1078,373c-17.38,36.63-18.46,46.47-52.89,71.6,35.86,8.08,71.61,17.39,107.59,23.93,56.41,10.24,113,20,169.49,21.46,30.09.77,60,.19,90,.07a38.61,38.61,0,0,0,11.92-1.51c22-7.46-14.72-45-28.67-52.79-27.54-15.33-167-44-193.91-48.79C1147.17,380.82,1112.58,370.29,1078,373Z"/><path class="cls-2" d="M923,222.52c11.39,6,23,11.75,34.12,18.21,12.7,7.36,25,15.4,37.49,23.14l8.16,4.4c10.59-9.16,20.52-19.26,32-27.23,15.35-10.69,32.33-19,47.73-29.68,15-10.35,29-22.15,43.25-33.61,17.77-14.35,36-28.25,52.74-43.71,20.95-19.32,41.29-39.41,60.54-60.4,10.11-11,17.55-24.55,25.75-37.22a28.15,28.15,0,0,0,3.91-11.69C1270.73,7.22,1264.5,1,1246.72.12,1224.79-1,1205.13,5.72,1185.81,15c-11.1,5.31-23.26,8.64-33.89,14.71-31.31,17.86-63.18,35.07-92.77,55.51-27.91,19.28-50.65,44.79-72,71.37-10.37,12.92-22.53,24.41-33.82,36.6-7.08,7.64-13.88,15.54-21.14,23C929.65,218.77,926.09,220.42,923,222.52Z"/><path class="cls-1" d="M443.44,272.86c-12.24,12.34-24.21,24.75-36.79,37-13.68,13.34-15.95,27-14.1,41-61.45-7.17-118.77-19.44-173.66-34.37C170,303.19,121,289.78,74.5,274.42c-25-8.27-46.46-20-66.34-31.74C.8,238.33-1.76,229,1.22,222.51c3.39-7.36,19-9.11,32.83-10.63,72.48-7.95,139.48-1.82,204.59,10.16,37.46,6.89,159.41,34.32,182.3,41.8C428.92,266.45,436,269.83,443.44,272.86Z"/><path class="cls-1" d="M377.93,373c17.38,36.63,18.46,46.47,52.89,71.6C395,452.65,359.21,462,323.23,468.5c-56.41,10.24-113,20-169.49,21.46-30.09.77-60,.19-90,.07a38.61,38.61,0,0,1-11.92-1.51c-22-7.46,14.72-45,28.67-52.79,27.54-15.33,167-44,193.91-48.79C308.76,380.82,343.35,370.29,377.93,373Z"/><path class="cls-2" d="M533,222.52c-11.39,6-23,11.75-34.13,18.21-12.69,7.36-25,15.4-37.48,23.14l-8.16,4.4C442.59,259.11,432.66,249,421.23,241c-15.35-10.69-32.33-19-47.73-29.68-15-10.35-29-22.15-43.25-33.61-17.77-14.35-36-28.25-52.74-43.71-20.95-19.32-41.29-39.41-60.54-60.4-10.11-11-17.55-24.55-25.76-37.22a28.43,28.43,0,0,1-3.91-11.69C185.2,7.22,191.43,1,209.21.12,231.14-1,250.8,5.72,270.11,15c11.11,5.31,23.27,8.64,33.9,14.71,31.31,17.86,63.17,35.07,92.77,55.51,27.9,19.28,50.65,44.79,72,71.37,10.37,12.92,22.53,24.41,33.82,36.6,7.08,7.64,13.88,15.54,21.14,23C526.28,218.77,529.84,220.42,533,222.52Z"/><path class="cls-3" d="M580.26,790.43c-5.42,3.22-9.78,7.16-14.85,8.57-11.77,3.27-25.32-6.91-26.13-20.2a78.47,78.47,0,0,1,2.8-26.66c3.35-11.23,14.51-11.63,24-13.11,4.36-.67,8.9-.11,14.57-.11-.24-5.07,0-9.15-.71-13-1.64-8.71-12-12.33-17-5.17-6.51,9.37-14.35,7.49-22.8,6.75-1.07-15.41,10.8-28.77,26.61-30.52,16.62-1.84,31.57,7.66,32.45,23.68,1.41,25.61.38,51.36.38,76.82C583.91,801.17,582.29,800.55,580.26,790.43ZM583,763.52c-2.84-3.27-5.25-8.72-8.6-9.37-8.53-1.64-14.24,4.53-14.53,13.4-.23,7,1.16,13,9.7,12.9C579.43,780.32,581.23,773.41,583,763.52Z"/><path class="cls-4" d="M848.62,748.18c0,8.35.91,16.82-.21,25-1.88,13.73-13.4,28-31.83,26.47-15.92-1.35-26.15-10.2-27.7-30.4-1.21-15.81-.38-32,1.34-47.76,1.8-16.48,13.71-25.19,30.32-24.6,14.62.51,27.08,12.75,28.2,28.32.54,7.62.09,15.3.09,23Zm-20.53-.82c0-6.6-.16-13.21,0-19.81.18-6.13-2.58-11.56-8.37-10.54-4,.71-9.89,6.35-10.24,10.22-1.25,13.78-.58,27.76-.46,41.66.05,6.28,3.78,10.78,9.68,9.15,3.73-1,8.07-6,8.93-9.91C829.14,761.5,828.08,754.31,828.09,747.36Z"/><path class="cls-5" d="M738.06,748.22c0,7.65.11,15.31,0,23-.29,16.82-11.6,28.07-28.25,28.24-16.23.17-30-12-30.37-27.7-.42-16.34-.36-32.7,0-49,.31-13,15.16-25.76,29.29-25.8,15.84-.06,28.45,10.66,29.15,25.26.42,8.67.08,17.39.08,26.08Zm-18.91.39c0-6.6-.16-13.2.05-19.78.22-7.21-3.88-12.42-10.08-11.81-3.85.38-9.8,6.46-10.16,10.4-1.25,13.77-.8,27.73-.32,41.59.22,6.32,4.37,11.24,10.94,9.13,3.84-1.24,8.2-5.93,9.16-9.85C720.26,762.07,719.15,755.2,719.15,748.61Z"/><path class="cls-6" d="M674.36,798.41c-19.28,1.75-19.2,1.71-26.87-14.07-2.22-4.57-5-8.86-8.42-14.77-3.05,6.09-6.9,11-7.89,16.37-2.24,12.24-9.78,14.58-20.31,13.22-1.7-.22-3.42-.23-7.2-.47,3.79-7.17,6.38-13.84,10.44-19.44,15.3-21.15,16.42-42,.58-63.4-3.4-4.6-5.29-10.33-8-15.76,20.08-3.43,21.06-2.7,32.3,24.36,2.7-5.09,4.93-9.07,7-13.15,7.06-14.19,7.63-14.49,25.78-11-5.67,12.47-10.84,24.82-16.87,36.74-3.38,6.66-4.23,11.73-.13,19C662.29,769.44,667.82,784,674.36,798.41Z"/><path class="cls-7" d="M884.34,668.8c0,6,0,11.53,0,17,0,11.63,0,11.63,11.73,14.39a52.79,52.79,0,0,1,.71,5.78c0,2-.33,4.06-.56,6.63l-11.77,2.1c0,19.07-.42,38.4.44,57.68.13,3,6.15,5.68,11.27,10.08v15.19c-20,4.44-32.59-5.15-32.71-24.75-.09-16-.16-32,0-48,.08-6.72.32-13-9.66-11.84-.32-7.44-3.59-15,7.29-16.86,1-.17,1.79-3.34,2.13-5.22a37,37,0,0,0,.11-6.24C863.48,666.17,863.48,666.17,884.34,668.8Z"/><path class="cls-8" d="M754.68,657.47l14.61-.05q0,54.39.06,108.77c0,2.65.44,5.29.67,7.94a8.08,8.08,0,0,0,1.24-1.08c.2-.24.15-.67.21-1,11.37,14.53,11.37,14.53,9.63,25.85-14.77,3.37-24.85-3.16-26.5-17.17Q754.65,719.1,754.68,657.47Z"/><path class="cls-9" d="M922.18,772c7.87,6.92,14.22,14.38,9.25,25.89-17.08,3.86-27.39-3.79-28.33-21.06q.09-42.81.18-85.6c0-12.81,2.91-14.89,16.74-11.21,0,28.18,0,56.65,0,85.11,0,3,.44,6,.68,9A9.3,9.3,0,0,0,922,773C922.16,772.8,922.12,772.37,922.18,772Z"/><path class="cls-10" d="M922.18,772c-.06.34,0,.77-.21,1a9.3,9.3,0,0,1-1.24,1.09c-.24-3-.67-6-.68-9,0-28.46,0-56.93,0-85.11-13.83-3.68-16.71-1.6-16.74,11.21q-.12,42.79-.18,85.6c-.61-2.27-1.74-4.55-1.75-6.83q-.11-53.67.07-107.35a34,34,0,0,1,.77-4.75h20Z"/><path class="cls-11" d="M1066.85,297.11l-35.79-31.25-73.47-42c-39.2-13.79-78.16-28.36-117.71-41-19.36-6.21-39.83-8.94-59.8-13.24-18.2-3.62-36.39-7.83-55.12-4.23-21.51,4.13-43,8.5-64.47,12.77-30.4,9.21-60.93,18.05-91.16,27.8-14.41,4.64-28.27,11-42.38,16.59-11.39,6-23,11.75-34.13,18.21-12.69,7.36-25,15.4-37.48,23.14h0l-8.16,4.4L429.74,284.6l-20.35,15.16C400.6,313.53,392,327.41,383,341c-9.81,14.82-12.09,31.31-11.67,48.52q0,6.1.07,12.21c1.83,40.48,11.15,79,29.4,115.34,21.44,33,49.22,58.08,85.27,75.31,33.19,15.86,68.27,24.44,103.78,28.25,52.74,5.65,106,6.74,159.06,8.84,20.46.82,41-1.18,61.52-1.41a714.8,714.8,0,0,0,130.38-13,240.29,240.29,0,0,0,99.14-44c20.1-15.08,34.51-34.81,45.25-56.37,11.21-22.5,14.09-48.3,19.64-72.79,3-13,2.62-26.72,3.78-40.11l.06-12.29C1108.84,352.34,1092.86,322.46,1066.85,297.11ZM825.92,625.7c-37.19.06-74.37.14-111.55-.14-2.52,0-5-2.87-7.53-4.41,2.45-1.24,4.89-3.55,7.35-3.58,24.42-.27,48.88-.87,73.27.11,14.43.58,28.74,3.82,43.1,5.86l.15,1.31A26.92,26.92,0,0,1,825.92,625.7Z"/><path class="cls-12" d="M754.68,657.47q0,61.62-.08,123.25c-.68-2.56-2-5.12-2-7.69q-.2-54,0-108.1C752.64,662.44,754,660,754.68,657.47Z"/><path class="cls-10" d="M771.47,772c-.06.34,0,.77-.21,1a8.08,8.08,0,0,1-1.24,1.08c-.23-2.65-.67-5.29-.67-7.94q-.08-54.39-.06-108.77c.76,2.81,2.17,5.61,2.18,8.42C771.59,701.24,771.51,736.64,771.47,772Z"/><path class="cls-13" d="M656.83,346.94c-.23,15.44-13,27.1-29.68,27.06-17.43,0-30.11-11.85-30-27.93.08-15.13,14.33-27.79,30.84-27.39C643.83,319.06,657.05,332,656.83,346.94Zm-39.51-22.69c-4.21,5.87-8.87,9.54-8.65,12.89s5.54,8.48,8.55,8.43,8.49-5.15,8.75-8.37S621.53,330.15,617.32,324.25Z"/><path class="cls-14" d="M852.9,318.68c15.7-.14,29.25,12.47,29.45,27.4.21,15.63-12.19,27.73-28.58,27.9-17.69.19-29.92-11.08-30-27.57C823.78,331.1,836.67,318.82,852.9,318.68Zm-10.68,5.85c-3.65,5.81-8.11,9.78-7.68,13.12.41,3.17,6.15,8.1,9.15,7.84,3.32-.3,8.7-5.7,8.6-8.73C852.18,333.3,847,330,842.22,324.53Z"/><path class="cls-15" d="M664.84,432.14c5,4.39,38.73,19.18,73.27,19.43,35.16.25,71.19-14.13,78.69-20.12-1.37,3.31-19.35,97.2-44.89,113.33-17.44,11-55.33,10.71-71.14-2.54-20.73-17.36-35.69-105.9-37.67-109Z"/><path class="cls-16" d="M830.71,624.85a26.92,26.92,0,0,1-4.79.85c-37.19.06-74.37.14-111.55-.14-2.52,0-5-2.87-7.53-4.41,2.45-1.24,4.89-3.55,7.35-3.57,24.42-.27,48.88-.88,73.27.1,14.43.58,28.74,3.82,43.1,5.86Z"/><path class="cls-17" d="M617.32,324.25c4.21,5.9,8.91,9.62,8.65,12.95s-5.59,8.33-8.75,8.37-8.34-5.22-8.55-8.43S613.11,330.12,617.32,324.25Z"/><path class="cls-18" d="M842.22,324.53c4.8,5.47,10,8.77,10.07,12.23.1,3-5.28,8.43-8.6,8.73-3,.26-8.74-4.67-9.15-7.84C834.11,334.31,838.57,330.34,842.22,324.53Z"/><path class="cls-15" d="M639,253.82s-6.42,2.55-15.55,6.66c-22.9,10.32-62.85,30.48-61.11,44.86a123.62,123.62,0,0,1,41.31-22.56,126.67,126.67,0,0,1,27.72-5.11Z"/><path class="cls-19" d="M608.66,387.08c-20.93-13.88-42.51-20.16-53.75-11,0,0,8.29-3.45,28.11,13.38,11.11,9.43,56.33,24,56.33,24S617,392.61,608.66,387.08Z"/><path class="cls-19" d="M867.55,387.08c20.93-13.88,42.51-20.16,53.75-11,0,0-8.29-3.45-28.11,13.38-11.11,9.43-56.32,24-56.32,24S859.21,392.61,867.55,387.08Z"/><path class="cls-15" d="M837.19,253.82s6.42,2.55,15.55,6.66c22.9,10.32,62.85,30.48,61.11,44.86a123.62,123.62,0,0,0-41.31-22.56,126.67,126.67,0,0,0-27.72-5.11Z"/></g></g></svg>